<svg width="32" height="32" viewBox="0 0 32 32" fill="none" xmlns="http://www.w3.org/2000/svg">
<path fill-rule="evenodd" clip-rule="evenodd" d="M3.24226 17.2411C3.69314 16.184 4.88328 15.6538 5.97068 16.0257L13.7472 18.6854C14.6349 18.9891 15.2313 19.8234 15.2313 20.7616V20.7616C15.2313 21.052 14.9959 21.2874 14.7056 21.2874H13.8763C13.5859 21.2874 13.3505 21.052 13.3505 20.7616V20.7616C13.3505 20.6276 13.2653 20.5084 13.1385 20.465L5.36203 17.8053C5.20669 17.7522 5.03667 17.8279 4.97226 17.979L3.90654 20.4776C3.83757 20.6393 3.91504 20.8261 4.07821 20.8915L18.6071 26.7172C18.9284 26.846 19.0845 27.211 18.9556 27.5324L18.7223 28.1143C18.5934 28.4357 18.2285 28.5917 17.9071 28.4629L3.37824 22.6372C2.23605 22.1792 1.69375 20.8716 2.17654 19.7397L3.24226 17.2411Z" fill="black"/>
<path fill-rule="evenodd" clip-rule="evenodd" d="M28.1659 17.2411C27.7151 16.184 26.5249 15.6538 25.4375 16.0257L17.661 18.6854C16.7733 18.9891 16.1769 19.8234 16.1769 20.7616V22.5143C16.1769 22.8605 16.4576 23.1412 16.8038 23.1412H17.4307C17.777 23.1412 18.0577 22.8605 18.0577 22.5143V20.7616C18.0577 20.6276 18.1429 20.5084 18.2697 20.465L26.0462 17.8053C26.2015 17.7522 26.3715 17.8279 26.4359 17.979L27.5017 20.4776C27.5706 20.6393 27.4932 20.8261 27.33 20.8915L12.8011 26.7172C12.4798 26.846 12.3237 27.211 12.4526 27.5324L12.6859 28.1143C12.8148 28.4357 13.1797 28.5917 13.5011 28.4629L28.03 22.6372C29.1722 22.1792 29.7145 20.8716 29.2317 19.7397L28.1659 17.2411Z" fill="black"/>
<path fill-rule="evenodd" clip-rule="evenodd" d="M15.1618 4.9404C15.4031 4.52244 16.0064 4.52244 16.2477 4.9404L21.1341 13.404C21.3754 13.8219 21.0738 14.3444 20.5912 14.3444H10.8183C10.3357 14.3444 10.0341 13.8219 10.2754 13.404L15.1618 4.9404ZM16.2477 8.70198C16.0064 8.28403 15.4031 8.28403 15.1618 8.70198L13.533 11.5232C13.2917 11.9411 13.5933 12.4636 14.0759 12.4636H17.3336C17.8162 12.4636 18.1178 11.9411 17.8765 11.5232L16.2477 8.70198Z" fill="black"/>
</svg>
